<svg width="992" height="42" viewBox="0 0 992 42" fill="none" xmlns="http://www.w3.org/2000/svg">
<g filter="url(#filter0_i_311_3414)">
<path d="M0.0443145 33V3.18H6.94551V27.3768H21.8981V33H0.0443145ZM39.5099 33V28.527L39.0839 27.5472V19.5384C39.0839 18.1184 38.6437 17.0108 37.7633 16.2156C36.9113 15.4204 35.5907 15.0228 33.8015 15.0228C32.5803 15.0228 31.3733 15.2216 30.1805 15.6192C29.0161 15.9884 28.0221 16.4996 27.1985 17.1528L24.8129 12.5094C26.0625 11.629 27.5677 10.9474 29.3285 10.4646C31.0893 9.9818 32.8785 9.7404 34.6961 9.7404C38.1893 9.7404 40.9015 10.564 42.8327 12.2112C44.7639 13.8584 45.7295 16.4286 45.7295 19.9218V33H39.5099ZM32.5235 33.3408C30.7343 33.3408 29.2007 33.0426 27.9227 32.4462C26.6447 31.8214 25.6649 30.9836 24.9833 29.9328C24.3017 28.882 23.9609 27.7034 23.9609 26.397C23.9609 25.0338 24.2875 23.841 24.9407 22.8186C25.6223 21.7962 26.6873 21.001 28.1357 20.433C29.5841 19.8366 31.4727 19.5384 33.8015 19.5384H39.8933V23.415H34.5257C32.9637 23.415 31.8845 23.6706 31.2881 24.1818C30.7201 24.693 30.4361 25.332 30.4361 26.0988C30.4361 26.9508 30.7627 27.6324 31.4159 28.1436C32.0975 28.6264 33.0205 28.8678 34.1849 28.8678C35.2925 28.8678 36.2865 28.6122 37.1669 28.101C38.0473 27.5614 38.6863 26.7804 39.0839 25.758L40.1063 28.8252C39.6235 30.302 38.7431 31.4238 37.4651 32.1906C36.1871 32.9574 34.5399 33.3408 32.5235 33.3408ZM59.4547 33.3408C57.4951 33.3408 55.6065 33.1136 53.7889 32.6592C51.9997 32.1764 50.5797 31.58 49.5289 30.87L51.7441 26.0988C52.7949 26.752 54.0303 27.2916 55.4503 27.7176C56.8987 28.1152 58.3187 28.314 59.7103 28.314C61.2439 28.314 62.3231 28.1294 62.9479 27.7602C63.6011 27.391 63.9277 26.8798 63.9277 26.2266C63.9277 25.687 63.6721 25.2894 63.1609 25.0338C62.6781 24.7498 62.0249 24.5368 61.2013 24.3948C60.3777 24.2528 59.4689 24.1108 58.4749 23.9688C57.5093 23.8268 56.5295 23.6422 55.5355 23.415C54.5415 23.1594 53.6327 22.7902 52.8091 22.3074C51.9855 21.8246 51.3181 21.1714 50.8069 20.3478C50.3241 19.5242 50.0827 18.4592 50.0827 17.1528C50.0827 15.7044 50.4945 14.4264 51.3181 13.3188C52.1701 12.2112 53.3913 11.345 54.9817 10.7202C56.5721 10.067 58.4749 9.7404 60.6901 9.7404C62.2521 9.7404 63.8425 9.9108 65.4613 10.2516C67.0801 10.5924 68.4291 11.0894 69.5083 11.7426L67.2931 16.4712C66.1855 15.818 65.0637 15.3778 63.9277 15.1506C62.8201 14.895 61.7409 14.7672 60.6901 14.7672C59.2133 14.7672 58.1341 14.966 57.4525 15.3636C56.7709 15.7612 56.4301 16.2724 56.4301 16.8972C56.4301 17.4652 56.6715 17.8912 57.1543 18.1752C57.6655 18.4592 58.3329 18.6864 59.1565 18.8568C59.9801 19.0272 60.8747 19.1834 61.8403 19.3254C62.8343 19.439 63.8283 19.6236 64.8223 19.8792C65.8163 20.1348 66.7109 20.504 67.5061 20.9868C68.3297 21.4412 68.9971 22.0802 69.5083 22.9038C70.0195 23.699 70.2751 24.7498 70.2751 26.0562C70.2751 27.4762 69.8491 28.74 68.9971 29.8476C68.1451 30.9268 66.9097 31.7788 65.2909 32.4036C63.7005 33.0284 61.7551 33.3408 59.4547 33.3408ZM97.814 33.3408C95.2012 33.3408 92.9008 32.8296 90.9128 31.8072C88.9532 30.7848 87.4338 29.3932 86.3546 27.6324C85.2754 25.8432 84.7358 23.8126 84.7358 21.5406C84.7358 19.2402 85.2612 17.2096 86.312 15.4488C87.3912 13.6596 88.8538 12.268 90.6998 11.274C92.5458 10.2516 94.6332 9.7404 96.962 9.7404C99.2056 9.7404 101.222 10.2232 103.011 11.1888C104.829 12.126 106.263 13.4892 107.314 15.2784C108.365 17.0392 108.89 19.155 108.89 21.6258C108.89 21.8814 108.876 22.1796 108.847 22.5204C108.819 22.8328 108.791 23.131 108.762 23.415H90.146V19.5384H105.269L102.713 20.6886C102.713 19.4958 102.472 18.4592 101.989 17.5788C101.506 16.6984 100.839 16.0168 99.9866 15.534C99.1346 15.0228 98.1406 14.7672 97.0046 14.7672C95.8686 14.7672 94.8604 15.0228 93.98 15.534C93.128 16.0168 92.4606 16.7126 91.9778 17.6214C91.495 18.5018 91.2536 19.5526 91.2536 20.7738V21.7962C91.2536 23.0458 91.5234 24.1534 92.063 25.119C92.631 26.0562 93.412 26.7804 94.406 27.2916C95.4284 27.7744 96.6212 28.0158 97.9844 28.0158C99.2056 28.0158 100.271 27.8312 101.179 27.462C102.117 27.0928 102.969 26.539 103.735 25.8006L107.271 29.6346C106.22 30.8274 104.9 31.7504 103.309 32.4036C101.719 33.0284 99.8872 33.3408 97.814 33.3408ZM109.794 33L120.06 19.5384L119.932 23.202L110.092 10.0812H117.547L123.766 18.6438L120.955 18.729L127.387 10.0812H134.459L124.576 23.0742V19.4958L134.8 33H127.26L120.742 23.8836L123.511 24.267L117.036 33H109.794ZM148.394 33.3408C145.924 33.3408 143.723 32.8438 141.791 31.8498C139.86 30.8274 138.341 29.4216 137.233 27.6324C136.154 25.8432 135.614 23.8126 135.614 21.5406C135.614 19.2402 136.154 17.2096 137.233 15.4488C138.341 13.6596 139.86 12.268 141.791 11.274C143.723 10.2516 145.924 9.7404 148.394 9.7404C150.808 9.7404 152.91 10.2516 154.699 11.274C156.488 12.268 157.809 13.7022 158.661 15.5766L153.506 18.3456C152.91 17.2664 152.157 16.4712 151.249 15.96C150.368 15.4488 149.403 15.1932 148.352 15.1932C147.216 15.1932 146.193 15.4488 145.285 15.96C144.376 16.4712 143.652 17.1954 143.112 18.1326C142.601 19.0698 142.345 20.2058 142.345 21.5406C142.345 22.8754 142.601 24.0114 143.112 24.9486C143.652 25.8858 144.376 26.61 145.285 27.1212C146.193 27.6324 147.216 27.888 148.352 27.888C149.403 27.888 150.368 27.6466 151.249 27.1638C152.157 26.6526 152.91 25.8432 153.506 24.7356L158.661 27.5472C157.809 29.3932 156.488 30.8274 154.699 31.8498C152.91 32.8438 150.808 33.3408 148.394 33.3408ZM172.158 33.3408C170.255 33.3408 168.551 32.9716 167.046 32.2332C165.569 31.4948 164.419 30.373 163.595 28.8678C162.771 27.3342 162.36 25.3888 162.36 23.0316V10.0812H169.005V22.0518C169.005 23.9546 169.403 25.3604 170.198 26.2692C171.022 27.1496 172.172 27.5898 173.649 27.5898C174.671 27.5898 175.58 27.3768 176.375 26.9508C177.17 26.4964 177.795 25.8148 178.249 24.906C178.704 23.9688 178.931 22.8044 178.931 21.4128V10.0812H185.577V33H179.272V26.6952L180.422 28.527C179.655 30.1174 178.519 31.3244 177.014 32.148C175.537 32.9432 173.918 33.3408 172.158 33.3408ZM199.444 33.3408C197.484 33.3408 195.596 33.1136 193.778 32.6592C191.989 32.1764 190.569 31.58 189.518 30.87L191.733 26.0988C192.784 26.752 194.02 27.2916 195.44 27.7176C196.888 28.1152 198.308 28.314 199.7 28.314C201.233 28.314 202.312 28.1294 202.937 27.7602C203.59 27.391 203.917 26.8798 203.917 26.2266C203.917 25.687 203.661 25.2894 203.15 25.0338C202.667 24.7498 202.014 24.5368 201.191 24.3948C200.367 24.2528 199.458 24.1108 198.464 23.9688C197.499 23.8268 196.519 23.6422 195.525 23.415C194.531 23.1594 193.622 22.7902 192.798 22.3074C191.975 21.8246 191.307 21.1714 190.796 20.3478C190.313 19.5242 190.072 18.4592 190.072 17.1528C190.072 15.7044 190.484 14.4264 191.307 13.3188C192.159 12.2112 193.381 11.345 194.971 10.7202C196.561 10.067 198.464 9.7404 200.679 9.7404C202.241 9.7404 203.832 9.9108 205.451 10.2516C207.069 10.5924 208.418 11.0894 209.498 11.7426L207.282 16.4712C206.175 15.818 205.053 15.3778 203.917 15.1506C202.809 14.895 201.73 14.7672 200.679 14.7672C199.203 14.7672 198.123 14.966 197.442 15.3636C196.76 15.7612 196.419 16.2724 196.419 16.8972C196.419 17.4652 196.661 17.8912 197.144 18.1752C197.655 18.4592 198.322 18.6864 199.146 18.8568C199.969 19.0272 200.864 19.1834 201.83 19.3254C202.824 19.439 203.818 19.6236 204.812 19.8792C205.806 20.1348 206.7 20.504 207.495 20.9868C208.319 21.4412 208.986 22.0802 209.498 22.9038C210.009 23.699 210.264 24.7498 210.264 26.0562C210.264 27.4762 209.838 28.74 208.986 29.8476C208.134 30.9268 206.899 31.7788 205.28 32.4036C203.69 33.0284 201.744 33.3408 199.444 33.3408ZM228.423 33V28.527L227.997 27.5472V19.5384C227.997 18.1184 227.556 17.0108 226.676 16.2156C225.824 15.4204 224.503 15.0228 222.714 15.0228C221.493 15.0228 220.286 15.2216 219.093 15.6192C217.929 15.9884 216.935 16.4996 216.111 17.1528L213.726 12.5094C214.975 11.629 216.48 10.9474 218.241 10.4646C220.002 9.9818 221.791 9.7404 223.609 9.7404C227.102 9.7404 229.814 10.564 231.745 12.2112C233.677 13.8584 234.642 16.4286 234.642 19.9218V33H228.423ZM221.436 33.3408C219.647 33.3408 218.113 33.0426 216.835 32.4462C215.557 31.8214 214.578 30.9836 213.896 29.9328C213.214 28.882 212.874 27.7034 212.874 26.397C212.874 25.0338 213.2 23.841 213.853 22.8186C214.535 21.7962 215.6 21.001 217.048 20.433C218.497 19.8366 220.385 19.5384 222.714 19.5384H228.806V23.415H223.438C221.876 23.415 220.797 23.6706 220.201 24.1818C219.633 24.693 219.349 25.332 219.349 26.0988C219.349 26.9508 219.675 27.6324 220.329 28.1436C221.01 28.6264 221.933 28.8678 223.098 28.8678C224.205 28.8678 225.199 28.6122 226.08 28.101C226.96 27.5614 227.599 26.7804 227.997 25.758L229.019 28.8252C228.536 30.302 227.656 31.4238 226.378 32.1906C225.1 32.9574 223.453 33.3408 221.436 33.3408ZM248.367 33.3408C246.408 33.3408 244.519 33.1136 242.702 32.6592C240.912 32.1764 239.492 31.58 238.442 30.87L240.657 26.0988C241.708 26.752 242.943 27.2916 244.363 27.7176C245.811 28.1152 247.231 28.314 248.623 28.314C250.157 28.314 251.236 28.1294 251.861 27.7602C252.514 27.391 252.84 26.8798 252.84 26.2266C252.84 25.687 252.585 25.2894 252.074 25.0338C251.591 24.7498 250.938 24.5368 250.114 24.3948C249.29 24.2528 248.382 24.1108 247.388 23.9688C246.422 23.8268 245.442 23.6422 244.448 23.415C243.454 23.1594 242.545 22.7902 241.722 22.3074C240.898 21.8246 240.231 21.1714 239.72 20.3478C239.237 19.5242 238.995 18.4592 238.995 17.1528C238.995 15.7044 239.407 14.4264 240.231 13.3188C241.083 12.2112 242.304 11.345 243.894 10.7202C245.485 10.067 247.388 9.7404 249.603 9.7404C251.165 9.7404 252.755 9.9108 254.374 10.2516C255.993 10.5924 257.342 11.0894 258.421 11.7426L256.206 16.4712C255.098 15.818 253.976 15.3778 252.84 15.1506C251.733 14.895 250.654 14.7672 249.603 14.7672C248.126 14.7672 247.047 14.966 246.365 15.3636C245.684 15.7612 245.343 16.2724 245.343 16.8972C245.343 17.4652 245.584 17.8912 246.067 18.1752C246.578 18.4592 247.246 18.6864 248.069 18.8568C248.893 19.0272 249.787 19.1834 250.753 19.3254C251.747 19.439 252.741 19.6236 253.735 19.8792C254.729 20.1348 255.624 20.504 256.419 20.9868C257.242 21.4412 257.91 22.0802 258.421 22.9038C258.932 23.699 259.188 24.7498 259.188 26.0562C259.188 27.4762 258.762 28.74 257.91 29.8476C257.058 30.9268 255.822 31.7788 254.204 32.4036C252.613 33.0284 250.668 33.3408 248.367 33.3408ZM285.193 33.3408C283.035 33.3408 281.089 32.858 279.357 31.8924C277.624 30.8984 276.247 29.521 275.225 27.7602C274.231 25.9994 273.734 23.9262 273.734 21.5406C273.734 19.1266 274.231 17.0392 275.225 15.2784C276.247 13.5176 277.624 12.1544 279.357 11.1888C281.089 10.2232 283.035 9.7404 285.193 9.7404C287.124 9.7404 288.814 10.1664 290.262 11.0184C291.711 11.8704 292.833 13.1626 293.628 14.895C294.423 16.6274 294.821 18.8426 294.821 21.5406C294.821 24.2102 294.437 26.4254 293.67 28.1862C292.904 29.9186 291.796 31.2108 290.348 32.0628C288.928 32.9148 287.209 33.3408 285.193 33.3408ZM286.343 27.888C287.422 27.888 288.402 27.6324 289.283 27.1212C290.163 26.61 290.859 25.8858 291.37 24.9486C291.91 23.983 292.179 22.847 292.179 21.5406C292.179 20.2058 291.91 19.0698 291.37 18.1326C290.859 17.1954 290.163 16.4712 289.283 15.96C288.402 15.4488 287.422 15.1932 286.343 15.1932C285.236 15.1932 284.242 15.4488 283.361 15.96C282.481 16.4712 281.771 17.1954 281.231 18.1326C280.72 19.0698 280.464 20.2058 280.464 21.5406C280.464 22.847 280.72 23.983 281.231 24.9486C281.771 25.8858 282.481 26.61 283.361 27.1212C284.242 27.6324 285.236 27.888 286.343 27.888ZM292.35 33V28.314L292.478 21.498L292.052 14.7246V1.3908H298.697V33H292.35ZM316.222 33.3408C313.609 33.3408 311.309 32.8296 309.321 31.8072C307.361 30.7848 305.842 29.3932 304.763 27.6324C303.684 25.8432 303.144 23.8126 303.144 21.5406C303.144 19.2402 303.669 17.2096 304.72 15.4488C305.799 13.6596 307.262 12.268 309.108 11.274C310.954 10.2516 313.041 9.7404 315.37 9.7404C317.614 9.7404 319.63 10.2232 321.419 11.1888C323.237 12.126 324.671 13.4892 325.722 15.2784C326.773 17.0392 327.298 19.155 327.298 21.6258C327.298 21.8814 327.284 22.1796 327.256 22.5204C327.227 22.8328 327.199 23.131 327.17 23.415H308.554V19.5384H323.677L321.121 20.6886C321.121 19.4958 320.88 18.4592 320.397 17.5788C319.914 16.6984 319.247 16.0168 318.395 15.534C317.543 15.0228 316.549 14.7672 315.413 14.7672C314.277 14.7672 313.269 15.0228 312.388 15.534C311.536 16.0168 310.869 16.7126 310.386 17.6214C309.903 18.5018 309.662 19.5526 309.662 20.7738V21.7962C309.662 23.0458 309.932 24.1534 310.471 25.119C311.039 26.0562 311.82 26.7804 312.814 27.2916C313.837 27.7744 315.029 28.0158 316.393 28.0158C317.614 28.0158 318.679 27.8312 319.588 27.462C320.525 27.0928 321.377 26.539 322.144 25.8006L325.679 29.6346C324.629 30.8274 323.308 31.7504 321.718 32.4036C320.127 33.0284 318.295 33.3408 316.222 33.3408ZM357.717 9.7404C359.535 9.7404 361.154 10.1096 362.574 10.848C364.022 11.558 365.158 12.6656 365.982 14.1708C366.805 15.6476 367.217 17.5504 367.217 19.8792V33H360.571V20.9016C360.571 19.0556 360.16 17.6924 359.336 16.812C358.541 15.9316 357.405 15.4914 355.928 15.4914C354.877 15.4914 353.926 15.7186 353.074 16.173C352.25 16.599 351.597 17.2664 351.114 18.1752C350.66 19.084 350.433 20.2484 350.433 21.6684V33H343.787V1.3908H350.433V16.4286L348.942 14.5116C349.765 12.978 350.944 11.7994 352.477 10.9758C354.011 10.1522 355.758 9.7404 357.717 9.7404ZM384.313 33.3408C381.871 33.3408 379.698 32.8296 377.795 31.8072C375.921 30.7848 374.43 29.3932 373.322 27.6324C372.243 25.8432 371.703 23.8126 371.703 21.5406C371.703 19.2402 372.243 17.2096 373.322 15.4488C374.43 13.6596 375.921 12.268 377.795 11.274C379.698 10.2516 381.871 9.7404 384.313 9.7404C386.727 9.7404 388.885 10.2516 390.788 11.274C392.691 12.268 394.182 13.6454 395.261 15.4062C396.34 17.167 396.88 19.2118 396.88 21.5406C396.88 23.8126 396.34 25.8432 395.261 27.6324C394.182 29.3932 392.691 30.7848 390.788 31.8072C388.885 32.8296 386.727 33.3408 384.313 33.3408ZM384.313 27.888C385.421 27.888 386.415 27.6324 387.295 27.1212C388.175 26.61 388.871 25.8858 389.382 24.9486C389.894 23.983 390.149 22.847 390.149 21.5406C390.149 20.2058 389.894 19.0698 389.382 18.1326C388.871 17.1954 388.175 16.4712 387.295 15.96C386.415 15.4488 385.421 15.1932 384.313 15.1932C383.205 15.1932 382.211 15.4488 381.331 15.96C380.451 16.4712 379.741 17.1954 379.201 18.1326C378.69 19.0698 378.434 20.2058 378.434 21.5406C378.434 22.847 378.69 23.983 379.201 24.9486C379.741 25.8858 380.451 26.61 381.331 27.1212C382.211 27.6324 383.205 27.888 384.313 27.888ZM403.595 41.6052C402.402 41.6052 401.223 41.4206 400.059 41.0514C398.895 40.6822 397.943 40.171 397.205 39.5178L399.633 34.7892C400.144 35.2436 400.726 35.5986 401.38 35.8542C402.061 36.1098 402.729 36.2376 403.382 36.2376C404.319 36.2376 405.057 36.0104 405.597 35.556C406.165 35.13 406.676 34.4058 407.131 33.3834L408.323 30.5718L408.835 29.8476L417.056 10.0812H423.446L413.095 34.4058C412.356 36.2518 411.504 37.7002 410.539 38.751C409.601 39.8018 408.551 40.5402 407.386 40.9662C406.25 41.3922 404.986 41.6052 403.595 41.6052ZM407.514 33.8946L397.29 10.0812H404.149L412.072 29.2512L407.514 33.8946ZM445.933 33.3408C443.974 33.3408 442.085 33.1136 440.267 32.6592C438.478 32.1764 437.058 31.58 436.007 30.87L438.223 26.0988C439.273 26.752 440.509 27.2916 441.929 27.7176C443.377 28.1152 444.797 28.314 446.189 28.314C447.722 28.314 448.802 28.1294 449.426 27.7602C450.08 27.391 450.406 26.8798 450.406 26.2266C450.406 25.687 450.151 25.2894 449.639 25.0338C449.157 24.7498 448.503 24.5368 447.68 24.3948C446.856 24.2528 445.947 24.1108 444.953 23.9688C443.988 23.8268 443.008 23.6422 442.014 23.415C441.02 23.1594 440.111 22.7902 439.288 22.3074C438.464 21.8246 437.797 21.1714 437.285 20.3478C436.803 19.5242 436.561 18.4592 436.561 17.1528C436.561 15.7044 436.973 14.4264 437.797 13.3188C438.649 12.2112 439.87 11.345 441.46 10.7202C443.051 10.067 444.953 9.7404 447.169 9.7404C448.731 9.7404 450.321 9.9108 451.94 10.2516C453.559 10.5924 454.908 11.0894 455.987 11.7426L453.772 16.4712C452.664 15.818 451.542 15.3778 450.406 15.1506C449.299 14.895 448.219 14.7672 447.169 14.7672C445.692 14.7672 444.613 14.966 443.931 15.3636C443.249 15.7612 442.909 16.2724 442.909 16.8972C442.909 17.4652 443.15 17.8912 443.633 18.1752C444.144 18.4592 444.811 18.6864 445.635 18.8568C446.459 19.0272 447.353 19.1834 448.319 19.3254C449.313 19.439 450.307 19.6236 451.301 19.8792C452.295 20.1348 453.189 20.504 453.985 20.9868C454.808 21.4412 455.476 22.0802 455.987 22.9038C456.498 23.699 456.754 24.7498 456.754 26.0562C456.754 27.4762 456.328 28.74 455.476 29.8476C454.624 30.9268 453.388 31.7788 451.769 32.4036C450.179 33.0284 448.234 33.3408 445.933 33.3408ZM471.759 33.3408C469.317 33.3408 467.144 32.8296 465.242 31.8072C463.367 30.7848 461.876 29.3932 460.769 27.6324C459.689 25.8432 459.15 23.8126 459.15 21.5406C459.15 19.2402 459.689 17.2096 460.769 15.4488C461.876 13.6596 463.367 12.268 465.242 11.274C467.144 10.2516 469.317 9.7404 471.759 9.7404C474.173 9.7404 476.332 10.2516 478.235 11.274C480.137 12.268 481.628 13.6454 482.708 15.4062C483.787 17.167 484.326 19.2118 484.326 21.5406C484.326 23.8126 483.787 25.8432 482.708 27.6324C481.628 29.3932 480.137 30.7848 478.235 31.8072C476.332 32.8296 474.173 33.3408 471.759 33.3408ZM471.759 27.888C472.867 27.888 473.861 27.6324 474.741 27.1212C475.622 26.61 476.318 25.8858 476.829 24.9486C477.34 23.983 477.596 22.847 477.596 21.5406C477.596 20.2058 477.34 19.0698 476.829 18.1326C476.318 17.1954 475.622 16.4712 474.741 15.96C473.861 15.4488 472.867 15.1932 471.759 15.1932C470.652 15.1932 469.658 15.4488 468.777 15.96C467.897 16.4712 467.187 17.1954 466.647 18.1326C466.136 19.0698 465.881 20.2058 465.881 21.5406C465.881 22.847 466.136 23.983 466.647 24.9486C467.187 25.8858 467.897 26.61 468.777 27.1212C469.658 27.6324 470.652 27.888 471.759 27.888ZM502.699 9.7404C504.516 9.7404 506.135 10.1096 507.555 10.848C509.003 11.558 510.139 12.6656 510.963 14.1708C511.787 15.6476 512.198 17.5504 512.198 19.8792V33H505.553V20.9016C505.553 19.0556 505.141 17.6924 504.317 16.812C503.522 15.9316 502.386 15.4914 500.909 15.4914C499.859 15.4914 498.907 15.7186 498.055 16.173C497.232 16.599 496.578 17.2664 496.096 18.1752C495.641 19.084 495.414 20.2484 495.414 21.6684V33H488.768V10.0812H495.116V16.4286L493.923 14.5116C494.747 12.978 495.925 11.7994 497.459 10.9758C498.992 10.1522 500.739 9.7404 502.699 9.7404ZM541.661 33.3408C539.048 33.3408 536.748 32.8296 534.76 31.8072C532.8 30.7848 531.281 29.3932 530.202 27.6324C529.122 25.8432 528.583 23.8126 528.583 21.5406C528.583 19.2402 529.108 17.2096 530.159 15.4488C531.238 13.6596 532.701 12.268 534.547 11.274C536.393 10.2516 538.48 9.7404 540.809 9.7404C543.053 9.7404 545.069 10.2232 546.858 11.1888C548.676 12.126 550.11 13.4892 551.161 15.2784C552.212 17.0392 552.737 19.155 552.737 21.6258C552.737 21.8814 552.723 22.1796 552.694 22.5204C552.666 22.8328 552.638 23.131 552.609 23.415H533.993V19.5384H549.116L546.56 20.6886C546.56 19.4958 546.319 18.4592 545.836 17.5788C545.353 16.6984 544.686 16.0168 543.834 15.534C542.982 15.0228 541.988 14.7672 540.852 14.7672C539.716 14.7672 538.707 15.0228 537.827 15.534C536.975 16.0168 536.308 16.7126 535.825 17.6214C535.342 18.5018 535.101 19.5526 535.101 20.7738V21.7962C535.101 23.0458 535.37 24.1534 535.91 25.119C536.478 26.0562 537.259 26.7804 538.253 27.2916C539.275 27.7744 540.468 28.0158 541.831 28.0158C543.053 28.0158 544.118 27.8312 545.026 27.462C545.964 27.0928 546.816 26.539 547.582 25.8006L551.118 29.6346C550.067 30.8274 548.747 31.7504 547.156 32.4036C545.566 33.0284 543.734 33.3408 541.661 33.3408ZM557.161 33V1.3908H563.807V33H557.161ZM582.849 33V9.57C582.849 6.9856 583.615 4.9266 585.149 3.393C586.683 1.831 588.869 1.05 591.709 1.05C592.675 1.05 593.598 1.1494 594.478 1.3482C595.387 1.547 596.154 1.8594 596.779 2.2854L595.032 7.0992C594.663 6.8436 594.251 6.6448 593.797 6.5028C593.342 6.3608 592.86 6.2898 592.348 6.2898C591.383 6.2898 590.63 6.5738 590.091 7.1418C589.579 7.6814 589.324 8.505 589.324 9.6126V11.7426L589.494 14.5968V33H582.849ZM579.313 15.7044V10.5924H595.203V15.7044H579.313ZM608.184 33.3408C606.281 33.3408 604.577 32.9716 603.072 32.2332C601.595 31.4948 600.445 30.373 599.621 28.8678C598.797 27.3342 598.386 25.3888 598.386 23.0316V10.0812H605.031V22.0518C605.031 23.9546 605.429 25.3604 606.224 26.2692C607.048 27.1496 608.198 27.5898 609.675 27.5898C610.697 27.5898 611.606 27.3768 612.401 26.9508C613.196 26.4964 613.821 25.8148 614.275 24.906C614.73 23.9688 614.957 22.8044 614.957 21.4128V10.0812H621.603V33H615.298V26.6952L616.448 28.527C615.681 30.1174 614.545 31.3244 613.04 32.148C611.563 32.9432 609.944 33.3408 608.184 33.3408ZM637.131 33.3408C634.433 33.3408 632.332 32.6592 630.827 31.296C629.321 29.9044 628.569 27.8454 628.569 25.119V5.0118H635.214V25.0338C635.214 25.9994 635.47 26.752 635.981 27.2916C636.492 27.8028 637.188 28.0584 638.069 28.0584C639.119 28.0584 640.014 27.7744 640.752 27.2064L642.542 31.8924C641.86 32.3752 641.036 32.7444 640.071 33C639.134 33.2272 638.154 33.3408 637.131 33.3408ZM625.033 15.7044V10.5924H640.923V15.7044H625.033ZM655.942 33.3408C654.039 33.3408 652.335 32.9716 650.83 32.2332C649.353 31.4948 648.203 30.373 647.38 28.8678C646.556 27.3342 646.144 25.3888 646.144 23.0316V10.0812H652.79V22.0518C652.79 23.9546 653.187 25.3604 653.983 26.2692C654.806 27.1496 655.956 27.5898 657.433 27.5898C658.456 27.5898 659.364 27.3768 660.16 26.9508C660.955 26.4964 661.58 25.8148 662.034 24.906C662.488 23.9688 662.716 22.8044 662.716 21.4128V10.0812H669.361V33H663.056V26.6952L664.207 28.527C663.44 30.1174 662.304 31.3244 660.799 32.148C659.322 32.9432 657.703 33.3408 655.942 33.3408ZM675.518 33V10.0812H681.865V16.5564L680.971 14.682C681.652 13.0632 682.746 11.842 684.251 11.0184C685.756 10.1664 687.588 9.7404 689.746 9.7404V15.8748C689.462 15.8464 689.207 15.8322 688.979 15.8322C688.752 15.8038 688.511 15.7896 688.255 15.7896C686.438 15.7896 684.961 16.315 683.825 17.3658C682.717 18.3882 682.163 19.9928 682.163 22.1796V33H675.518ZM704.437 33.3408C701.995 33.3408 699.822 32.8296 697.919 31.8072C696.045 30.7848 694.554 29.3932 693.446 27.6324C692.367 25.8432 691.827 23.8126 691.827 21.5406C691.827 19.2402 692.367 17.2096 693.446 15.4488C694.554 13.6596 696.045 12.268 697.919 11.274C699.822 10.2516 701.995 9.7404 704.437 9.7404C706.851 9.7404 709.009 10.2516 710.912 11.274C712.815 12.268 714.306 13.6454 715.385 15.4062C716.464 17.167 717.004 19.2118 717.004 21.5406C717.004 23.8126 716.464 25.8432 715.385 27.6324C714.306 29.3932 712.815 30.7848 710.912 31.8072C709.009 32.8296 706.851 33.3408 704.437 33.3408ZM704.437 27.888C705.545 27.888 706.539 27.6324 707.419 27.1212C708.299 26.61 708.995 25.8858 709.506 24.9486C710.018 23.983 710.273 22.847 710.273 21.5406C710.273 20.2058 710.018 19.0698 709.506 18.1326C708.995 17.1954 708.299 16.4712 707.419 15.96C706.539 15.4488 705.545 15.1932 704.437 15.1932C703.329 15.1932 702.335 15.4488 701.455 15.96C700.575 16.4712 699.865 17.1954 699.325 18.1326C698.814 19.0698 698.558 20.2058 698.558 21.5406C698.558 22.847 698.814 23.983 699.325 24.9486C699.865 25.8858 700.575 26.61 701.455 27.1212C702.335 27.6324 703.329 27.888 704.437 27.888ZM743.351 33.3408C741.193 33.3408 739.247 32.858 737.515 31.8924C735.782 30.8984 734.405 29.521 733.383 27.7602C732.389 25.9994 731.892 23.9262 731.892 21.5406C731.892 19.1266 732.389 17.0392 733.383 15.2784C734.405 13.5176 735.782 12.1544 737.515 11.1888C739.247 10.2232 741.193 9.7404 743.351 9.7404C745.282 9.7404 746.972 10.1664 748.42 11.0184C749.869 11.8704 750.991 13.1626 751.786 14.895C752.581 16.6274 752.979 18.8426 752.979 21.5406C752.979 24.2102 752.595 26.4254 751.828 28.1862C751.062 29.9186 749.954 31.2108 748.506 32.0628C747.086 32.9148 745.367 33.3408 743.351 33.3408ZM744.501 27.888C745.58 27.888 746.56 27.6324 747.441 27.1212C748.321 26.61 749.017 25.8858 749.528 24.9486C750.068 23.983 750.337 22.847 750.337 21.5406C750.337 20.2058 750.068 19.0698 749.528 18.1326C749.017 17.1954 748.321 16.4712 747.441 15.96C746.56 15.4488 745.58 15.1932 744.501 15.1932C743.394 15.1932 742.4 15.4488 741.519 15.96C740.639 16.4712 739.929 17.1954 739.389 18.1326C738.878 19.0698 738.622 20.2058 738.622 21.5406C738.622 22.847 738.878 23.983 739.389 24.9486C739.929 25.8858 740.639 26.61 741.519 27.1212C742.4 27.6324 743.394 27.888 744.501 27.888ZM750.508 33V28.314L750.636 21.498L750.21 14.7246V1.3908H756.855V33H750.508ZM774.38 33.3408C771.767 33.3408 769.467 32.8296 767.479 31.8072C765.519 30.7848 764 29.3932 762.921 27.6324C761.842 25.8432 761.302 23.8126 761.302 21.5406C761.302 19.2402 761.827 17.2096 762.878 15.4488C763.957 13.6596 765.42 12.268 767.266 11.274C769.112 10.2516 771.199 9.7404 773.528 9.7404C775.772 9.7404 777.788 10.2232 779.577 11.1888C781.395 12.126 782.829 13.4892 783.88 15.2784C784.931 17.0392 785.456 19.155 785.456 21.6258C785.456 21.8814 785.442 22.1796 785.414 22.5204C785.385 22.8328 785.357 23.131 785.328 23.415H766.712V19.5384H781.835L779.279 20.6886C779.279 19.4958 779.038 18.4592 778.555 17.5788C778.072 16.6984 777.405 16.0168 776.553 15.534C775.701 15.0228 774.707 14.7672 773.571 14.7672C772.435 14.7672 771.427 15.0228 770.546 15.534C769.694 16.0168 769.027 16.7126 768.544 17.6214C768.061 18.5018 767.82 19.5526 767.82 20.7738V21.7962C767.82 23.0458 768.09 24.1534 768.629 25.119C769.197 26.0562 769.978 26.7804 770.972 27.2916C771.995 27.7744 773.187 28.0158 774.551 28.0158C775.772 28.0158 776.837 27.8312 777.746 27.462C778.683 27.0928 779.535 26.539 780.302 25.8006L783.837 29.6346C782.787 30.8274 781.466 31.7504 779.876 32.4036C778.285 33.0284 776.453 33.3408 774.38 33.3408ZM831.296 9.7404C833.114 9.7404 834.719 10.1096 836.11 10.848C837.53 11.558 838.638 12.6656 839.433 14.1708C840.257 15.6476 840.668 17.5504 840.668 19.8792V33H834.023V20.9016C834.023 19.0556 833.639 17.6924 832.873 16.812C832.106 15.9316 831.027 15.4914 829.635 15.4914C828.669 15.4914 827.803 15.7186 827.036 16.173C826.27 16.599 825.673 17.2522 825.247 18.1326C824.821 19.013 824.608 20.1348 824.608 21.498V33H817.963V20.9016C817.963 19.0556 817.579 17.6924 816.812 16.812C816.074 15.9316 815.009 15.4914 813.617 15.4914C812.652 15.4914 811.786 15.7186 811.019 16.173C810.252 16.599 809.656 17.2522 809.23 18.1326C808.804 19.013 808.591 20.1348 808.591 21.498V33H801.945V10.0812H808.292V16.3434L807.1 14.5116C807.895 12.9496 809.017 11.771 810.465 10.9758C811.942 10.1522 813.617 9.7404 815.492 9.7404C817.593 9.7404 819.425 10.28 820.987 11.3592C822.578 12.41 823.628 14.0288 824.14 16.2156L821.797 15.5766C822.563 13.7874 823.785 12.3674 825.46 11.3166C827.164 10.2658 829.11 9.7404 831.296 9.7404ZM860.683 33V28.527L860.257 27.5472V19.5384C860.257 18.1184 859.817 17.0108 858.936 16.2156C858.084 15.4204 856.764 15.0228 854.975 15.0228C853.753 15.0228 852.546 15.2216 851.354 15.6192C850.189 15.9884 849.195 16.4996 848.372 17.1528L845.986 12.5094C847.236 11.629 848.741 10.9474 850.502 10.4646C852.262 9.9818 854.052 9.7404 855.869 9.7404C859.362 9.7404 862.075 10.564 864.006 12.2112C865.937 13.8584 866.903 16.4286 866.903 19.9218V33H860.683ZM853.697 33.3408C851.907 33.3408 850.374 33.0426 849.096 32.4462C847.818 31.8214 846.838 30.9836 846.156 29.9328C845.475 28.882 845.134 27.7034 845.134 26.397C845.134 25.0338 845.461 23.841 846.114 22.8186C846.795 21.7962 847.86 21.001 849.309 20.433C850.757 19.8366 852.646 19.5384 854.975 19.5384H861.066V23.415H855.699C854.137 23.415 853.058 23.6706 852.461 24.1818C851.893 24.693 851.609 25.332 851.609 26.0988C851.609 26.9508 851.936 27.6324 852.589 28.1436C853.271 28.6264 854.194 28.8678 855.358 28.8678C856.466 28.8678 857.46 28.6122 858.34 28.101C859.22 27.5614 859.859 26.7804 860.257 25.758L861.279 28.8252C860.797 30.302 859.916 31.4238 858.638 32.1906C857.36 32.9574 855.713 33.3408 853.697 33.3408ZM886.847 9.7404C888.665 9.7404 890.284 10.1096 891.704 10.848C893.152 11.558 894.288 12.6656 895.112 14.1708C895.935 15.6476 896.347 17.5504 896.347 19.8792V33H889.702V20.9016C889.702 19.0556 889.29 17.6924 888.466 16.812C887.671 15.9316 886.535 15.4914 885.058 15.4914C884.007 15.4914 883.056 15.7186 882.204 16.173C881.38 16.599 880.727 17.2664 880.244 18.1752C879.79 19.084 879.563 20.2484 879.563 21.6684V33H872.917V10.0812H879.265V16.4286L878.072 14.5116C878.895 12.978 880.074 11.7994 881.608 10.9758C883.141 10.1522 884.888 9.7404 886.847 9.7404ZM887.87 7.2696C887.131 7.2696 886.478 7.1418 885.91 6.8862C885.342 6.6022 884.831 6.2898 884.377 5.949C883.922 5.5798 883.496 5.2674 883.099 5.0118C882.701 4.7278 882.303 4.5858 881.906 4.5858C881.338 4.5858 880.869 4.7988 880.5 5.2248C880.131 5.6224 879.918 6.2046 879.861 6.9714H876.496C876.552 5.0686 877.021 3.5634 877.901 2.4558C878.782 1.3198 879.975 0.7518 881.48 0.7518C882.218 0.7518 882.871 0.8938 883.439 1.1778C884.007 1.4334 884.519 1.7458 884.973 2.115C885.456 2.4842 885.896 2.8108 886.294 3.0948C886.691 3.3504 887.075 3.4782 887.444 3.4782C888.04 3.4782 888.523 3.2794 888.892 2.8818C889.261 2.4558 889.46 1.8878 889.489 1.1778H892.854C892.826 2.9954 892.357 4.4722 891.448 5.6082C890.568 6.7158 889.375 7.2696 887.87 7.2696ZM916.429 33V28.527L916.003 27.5472V19.5384C916.003 18.1184 915.563 17.0108 914.683 16.2156C913.831 15.4204 912.51 15.0228 910.721 15.0228C909.5 15.0228 908.293 15.2216 907.1 15.6192C905.935 15.9884 904.941 16.4996 904.118 17.1528L901.732 12.5094C902.982 11.629 904.487 10.9474 906.248 10.4646C908.009 9.9818 909.798 9.7404 911.615 9.7404C915.109 9.7404 917.821 10.564 919.752 12.2112C921.683 13.8584 922.649 16.4286 922.649 19.9218V33H916.429ZM909.443 33.3408C907.654 33.3408 906.12 33.0426 904.842 32.4462C903.564 31.8214 902.584 30.9836 901.903 29.9328C901.221 28.882 900.88 27.7034 900.88 26.397C900.88 25.0338 901.207 23.841 901.86 22.8186C902.542 21.7962 903.607 21.001 905.055 20.433C906.503 19.8366 908.392 19.5384 910.721 19.5384H916.813V23.415H911.445C909.883 23.415 908.804 23.6706 908.207 24.1818C907.639 24.693 907.355 25.332 907.355 26.0988C907.355 26.9508 907.682 27.6324 908.335 28.1436C909.017 28.6264 909.94 28.8678 911.104 28.8678C912.212 28.8678 913.206 28.6122 914.086 28.101C914.967 27.5614 915.606 26.7804 916.003 25.758L917.026 28.8252C916.543 30.302 915.662 31.4238 914.384 32.1906C913.106 32.9574 911.459 33.3408 909.443 33.3408ZM942.594 9.7404C944.411 9.7404 946.03 10.1096 947.45 10.848C948.898 11.558 950.034 12.6656 950.858 14.1708C951.682 15.6476 952.093 17.5504 952.093 19.8792V33H945.448V20.9016C945.448 19.0556 945.036 17.6924 944.212 16.812C943.417 15.9316 942.281 15.4914 940.804 15.4914C939.754 15.4914 938.802 15.7186 937.95 16.173C937.127 16.599 936.473 17.2664 935.991 18.1752C935.536 19.084 935.309 20.2484 935.309 21.6684V33H928.663V10.0812H935.011V16.4286L933.818 14.5116C934.642 12.978 935.82 11.7994 937.354 10.9758C938.887 10.1522 940.634 9.7404 942.594 9.7404ZM972.175 33V28.527L971.749 27.5472V19.5384C971.749 18.1184 971.309 17.0108 970.429 16.2156C969.577 15.4204 968.256 15.0228 966.467 15.0228C965.246 15.0228 964.039 15.2216 962.846 15.6192C961.681 15.9884 960.687 16.4996 959.864 17.1528L957.478 12.5094C958.728 11.629 960.233 10.9474 961.994 10.4646C963.755 9.9818 965.544 9.7404 967.361 9.7404C970.855 9.7404 973.567 10.564 975.498 12.2112C977.429 13.8584 978.395 16.4286 978.395 19.9218V33H972.175ZM965.189 33.3408C963.4 33.3408 961.866 33.0426 960.588 32.4462C959.31 31.8214 958.33 30.9836 957.649 29.9328C956.967 28.882 956.626 27.7034 956.626 26.397C956.626 25.0338 956.953 23.841 957.606 22.8186C958.288 21.7962 959.353 21.001 960.801 20.433C962.249 19.8366 964.138 19.5384 966.467 19.5384H972.559V23.415H967.191C965.629 23.415 964.55 23.6706 963.953 24.1818C963.385 24.693 963.101 25.332 963.101 26.0988C963.101 26.9508 963.428 27.6324 964.081 28.1436C964.763 28.6264 965.686 28.8678 966.85 28.8678C967.958 28.8678 968.952 28.6122 969.832 28.101C970.713 27.5614 971.352 26.7804 971.749 25.758L972.772 28.8252C972.289 30.302 971.408 31.4238 970.13 32.1906C968.852 32.9574 967.205 33.3408 965.189 33.3408ZM986.923 33.3408C985.787 33.3408 984.807 32.9574 983.983 32.1906C983.188 31.3954 982.791 30.3872 982.791 29.166C982.791 27.9448 983.188 26.965 983.983 26.2266C984.807 25.4598 985.787 25.0764 986.923 25.0764C988.087 25.0764 989.067 25.4598 989.862 26.2266C990.657 26.965 991.055 27.9448 991.055 29.166C991.055 30.3872 990.657 31.3954 989.862 32.1906C989.067 32.9574 988.087 33.3408 986.923 33.3408Z" fill="url(#paint0_linear_311_3414)" fill-opacity="0.5"/>
</g>
<defs>
<filter id="filter0_i_311_3414" x="0.0439453" y="0.751831" width="991.011" height="44.8534" filterUnits="userSpaceOnUse" color-interpolation-filters="sRGB">
<feFlood flood-opacity="0" result="BackgroundImageFix"/>
<feBlend mode="normal" in="SourceGraphic" in2="BackgroundImageFix" result="shape"/>
<feColorMatrix in="SourceAlpha" type="matrix" values="0 0 0 0 0 0 0 0 0 0 0 0 0 0 0 0 0 0 127 0" result="hardAlpha"/>
<feOffset dy="4"/>
<feGaussianBlur stdDeviation="2"/>
<feComposite in2="hardAlpha" operator="arithmetic" k2="-1" k3="1"/>
<feColorMatrix type="matrix" values="0 0 0 0 0 0 0 0 0 0 0 0 0 0 0 0 0 0 0.25 0"/>
<feBlend mode="normal" in2="shape" result="effect1_innerShadow_311_3414"/>
</filter>
<linearGradient id="paint0_linear_311_3414" x1="13.1924" y1="33.4148" x2="41.1183" y2="-142.561" gradientUnits="userSpaceOnUse">
<stop stop-color="#F42F36" stop-opacity="0.51"/>
<stop offset="0.427083" stop-color="#0F2CC2" stop-opacity="0.46"/>
<stop offset="0.9375" stop-color="#1D972E" stop-opacity="0.36"/>
</linearGradient>
</defs>
</svg>
